<svg width="45" height="46" viewBox="0 0 45 46" fill="none" xmlns="http://www.w3.org/2000/svg">
<g clip-path="url(#clip0_142_118)">
<mask id="mask0_142_118" style="mask-type:luminance" maskUnits="userSpaceOnUse" x="0" y="0" width="45" height="46">
<path d="M45 0.5H0V45.5H45V0.5Z" fill="white"/>
</mask>
<g mask="url(#mask0_142_118)">
<path d="M21.0936 15.6504V21.0129L19.1998 20.3567C18.2436 20.0192 17.6624 19.7004 17.6624 18.0691C17.6624 16.7379 18.6561 15.6504 19.8748 15.6504H21.0936Z" fill="#3E3E3E"/>
<path d="M27.3375 27.9301C27.3375 29.2613 26.3437 30.3488 25.125 30.3488H23.9062V24.9863L25.8 25.6426C26.7563 25.9801 27.3375 26.2988 27.3375 27.9301Z" fill="#3E3E3E"/>
<path d="M30.3563 4.25H14.6438C7.81875 4.25 3.75 8.31875 3.75 15.1438V30.8563C3.75 37.6813 7.81875 41.75 14.6438 41.75H30.3563C37.1813 41.75 41.25 37.6813 41.25 30.8563V15.1438C41.25 8.31875 37.1813 4.25 30.3563 4.25ZM26.7375 23C28.2 23.5063 30.15 24.575 30.15 27.9312C30.15 30.8188 27.9 33.1625 25.125 33.1625H23.9062V34.25C23.9062 35.0187 23.2687 35.6562 22.5 35.6562C21.7313 35.6562 21.0938 35.0187 21.0938 34.25V33.1625H20.4188C17.3438 33.1625 14.85 30.5562 14.85 27.3687C14.85 26.6 15.4688 25.9625 16.2563 25.9625C17.025 25.9625 17.6625 26.6 17.6625 27.3687C17.6625 29.0187 18.9 30.35 20.4188 30.35H21.0938V23.9937L18.2625 23C16.8 22.4937 14.85 21.425 14.85 18.0687C14.85 15.1812 17.1 12.8375 19.875 12.8375H21.0938V11.75C21.0938 10.9812 21.7313 10.3438 22.5 10.3438C23.2687 10.3438 23.9062 10.9812 23.9062 11.75V12.8375H24.5812C27.6562 12.8375 30.15 15.4438 30.15 18.6313C30.15 19.4 29.5312 20.0375 28.7437 20.0375C27.975 20.0375 27.3375 19.4 27.3375 18.6313C27.3375 16.9812 26.1 15.65 24.5812 15.65H23.9062V22.0063L26.7375 23Z" fill="#3E3E3E"/>
</g>
</g>
<defs>
<clipPath id="clip0_142_118">
<rect width="45" height="45" fill="white" transform="translate(0 0.5)"/>
</clipPath>
</defs>
</svg>
