<svg width="50" height="50" viewBox="0 0 50 50" fill="none" xmlns="http://www.w3.org/2000/svg">
<rect width="50" height="50" rx="13" fill="url(#paint0_linear_333_31)"/>
<g clip-path="url(#clip0_333_31)">
<path d="M17.2872 32.7134C17.2872 35.0804 15.3685 36.9992 13.0015 36.9992C10.6345 36.9992 8.71582 35.0804 8.71582 32.7134C8.71582 30.3464 10.6345 28.4277 13.0015 28.4277C15.3685 28.4277 17.2872 30.3464 17.2872 32.7134Z" fill="black"/>
<path d="M41.2872 32.7134C41.2872 35.0804 39.3685 36.9992 37.0015 36.9992C34.6345 36.9992 32.7158 35.0804 32.7158 32.7134C32.7158 30.3464 34.6345 28.4277 37.0015 28.4277C39.3685 28.4277 41.2872 30.3464 41.2872 32.7134Z" fill="black"/>
<path d="M27.4824 14.3289C27.3367 14.0409 27.0384 13.8574 26.7161 13.8574H18.1447C17.8207 13.8574 17.5241 14.0409 17.3784 14.3289L16.7578 15.5717H28.103L27.4824 14.3289Z" fill="black"/>
<path d="M40.4304 24.1423H34.859L30.7464 18.6583C30.3179 18.0892 29.6253 17.5029 28.9619 17.2852H15.899C15.2356 17.5029 14.5413 18.0892 14.1144 18.6566L10.0001 24.1423H5.28585C4.81443 24.1423 4.42871 24.528 4.42871 24.9994V31.8566C4.42871 32.328 4.81443 32.7137 5.28585 32.7137H7.00014C7.00014 29.4052 9.69157 26.7137 13.0001 26.7137C16.3087 26.7137 19.0001 29.4052 19.0001 32.7137H31.0001C31.0001 29.4052 33.6911 26.7137 37.0001 26.7137C40.3091 26.7137 43.0001 29.4052 43.0001 32.7137H44.7144C45.1876 32.7137 45.5716 32.328 45.5716 31.8566V30.9994C45.5733 25.3303 42.7773 24.1423 40.4304 24.1423Z" fill="black"/>
</g>
<defs>
<linearGradient id="paint0_linear_333_31" x1="-7.15945e-07" y1="37.4886" x2="50" y2="12.5114" gradientUnits="userSpaceOnUse">
<stop stop-color="#FFDB63"/>
<stop offset="1" stop-color="#FFCF32"/>
</linearGradient>
<clipPath id="clip0_333_31">
<rect width="41.1429" height="30" fill="white" transform="translate(4.42871 10)"/>
</clipPath>
</defs>
</svg>
