<svg width="45" height="46" viewBox="0 0 45 46" fill="none" xmlns="http://www.w3.org/2000/svg">
<g clip-path="url(#clip0_142_142)">
<mask id="mask0_142_142" style="mask-type:luminance" maskUnits="userSpaceOnUse" x="0" y="0" width="45" height="46">
<path d="M45 0.5H0V45.5H45V0.5Z" fill="white"/>
</mask>
<g mask="url(#mask0_142_142)">
<path d="M36.525 5.78907L37.05 6.85782C37.3125 7.38282 37.9687 7.87032 38.55 7.98282L39.2625 8.09532C41.4 8.45157 41.9062 10.0266 40.3687 11.5828L39.7125 12.2391C39.2812 12.6891 39.0375 13.5516 39.1687 14.1516L39.2625 14.5453C39.8437 17.1328 38.475 18.1266 36.225 16.7766L35.7375 16.4953C35.1562 16.1578 34.2187 16.1578 33.6375 16.4953L33.15 16.7766C30.8812 18.1453 29.5125 17.1328 30.1125 14.5453L30.2062 14.1516C30.3375 13.5516 30.0937 12.6891 29.6625 12.2391L29.0062 11.5641C27.4687 10.0078 27.975 8.43282 30.1125 8.07657L30.825 7.96407C31.3875 7.87032 32.0625 7.36407 32.325 6.83907L32.85 5.77032C33.8625 3.74532 35.5125 3.74532 36.525 5.78907Z" fill="#393939"/>
<path d="M40.4437 19.4188C39.7687 19.9062 37.875 20.8063 35.175 19.4188C34.875 19.2688 34.5 19.25 34.2 19.4188C33.1313 19.9625 32.1562 20.1875 31.3875 20.1875C30.1875 20.1875 29.3438 19.7188 28.9313 19.4188C28.2375 18.9125 26.775 17.4688 27.2812 14.4125C27.3375 14.0938 27.2437 13.775 27.0375 13.5312C25.7437 12.05 25.0312 10.0625 25.5375 8.50625C25.725 7.8875 25.3312 7.0625 24.6938 7.0625H13.125C7.5 7.0625 3.75 9.875 3.75 16.4375V29.5625C3.75 36.125 7.5 38.9375 13.125 38.9375H31.875C37.5 38.9375 41.25 36.125 41.25 29.5625V19.7563C41.25 19.4 40.7437 19.2125 40.4437 19.4188ZM26.8875 23.1688C25.65 24.1625 24.075 24.65 22.5 24.65C20.925 24.65 19.3312 24.1625 18.1125 23.1688L12.2438 18.4813C11.6438 17.9938 11.55 17.0937 12.0187 16.4937C12.5062 15.8937 13.3875 15.7812 13.9875 16.2687L19.8563 20.9562C21.2812 22.1 23.7 22.1 25.125 20.9562C25.725 20.4688 26.6062 20.5625 27.0938 21.1812C27.6 21.7812 27.5063 22.6813 26.8875 23.1688Z" fill="#393939"/>
</g>
</g>
<defs>
<clipPath id="clip0_142_142">
<rect width="45" height="45" fill="white" transform="translate(0 0.5)"/>
</clipPath>
</defs>
</svg>
