<svg width="45" height="46" viewBox="0 0 45 46" fill="none" xmlns="http://www.w3.org/2000/svg">
<g clip-path="url(#clip0_142_63)">
<mask id="mask0_142_63" style="mask-type:luminance" maskUnits="userSpaceOnUse" x="0" y="0" width="45" height="46">
<path d="M45 0.5H0V45.5H45V0.5Z" fill="white"/>
</mask>
<g mask="url(#mask0_142_63)">
<path d="M30.3563 4.25H14.6438C7.81875 4.25 3.75 8.31875 3.75 15.1438V30.8375C3.75 37.6813 7.81875 41.75 14.6438 41.75H30.3375C37.1625 41.75 41.2313 37.6813 41.2313 30.8563V15.1438C41.25 8.31875 37.1813 4.25 30.3563 4.25ZM12.1313 17.9C11.5875 17.3563 11.5875 16.4563 12.1313 15.9125C14.55 13.4938 18.5063 13.4938 20.9438 15.9125C21.4875 16.4563 21.4875 17.3563 20.9438 17.9C20.6625 18.1813 20.3063 18.3125 19.95 18.3125C19.5938 18.3125 19.2375 18.1813 18.9563 17.9C17.625 16.5688 15.45 16.5688 14.1188 17.9C13.575 18.4625 12.675 18.4625 12.1313 17.9ZM29.25 34.4H15.75C14.4375 34.4 13.3688 33.3313 13.3688 32C13.3688 26.9563 17.475 22.85 22.5188 22.85C27.5625 22.85 31.6688 26.9563 31.6688 32C31.65 33.3125 30.5625 34.4 29.25 34.4ZM32.8688 17.9C32.325 18.4438 31.425 18.4438 30.8813 17.9C29.55 16.5688 27.375 16.5688 26.0438 17.9C25.7625 18.1813 25.4062 18.3125 25.05 18.3125C24.6938 18.3125 24.3375 18.1813 24.0563 17.9C23.5125 17.3563 23.5125 16.4563 24.0563 15.9125C26.475 13.4938 30.4313 13.4938 32.8688 15.9125C33.4125 16.475 33.4125 17.3563 32.8688 17.9Z" fill="#3E3E3E"/>
</g>
</g>
<defs>
<clipPath id="clip0_142_63">
<rect width="45" height="45" fill="white" transform="translate(0 0.5)"/>
</clipPath>
</defs>
</svg>
